<?xml version="1.0" encoding="utf-8"?>
<!-- Generator: Adobe Illustrator 15.0.0, SVG Export Plug-In . SVG Version: 6.00 Build 0)  -->
<!DOCTYPE svg PUBLIC "-//W3C//DTD SVG 1.1//EN" "http://www.w3.org/Graphics/SVG/1.1/DTD/svg11.dtd">
<svg version="1.1" id="Layer_1" xmlns="http://www.w3.org/2000/svg" xmlns:xlink="http://www.w3.org/1999/xlink" x="0px" y="0px"
	 width="205px" height="205px" viewBox="-52.5 -52.5 205 205" enable-background="new -52.5 -52.5 205 205" xml:space="preserve">
<g>
	<g>
		<path fill="#F5F5F5" d="M19.792,35.418c7.48,0,13.542-6.062,13.542-13.542S27.272,8.334,19.792,8.334
			c-7.478,0-13.542,6.062-13.542,13.542S12.316,35.418,19.792,35.418z M80.211,35.418c7.48,0,13.541-6.062,13.541-13.542
			S87.691,8.334,80.211,8.334c-7.479,0-13.543,6.062-13.543,13.542S72.732,35.418,80.211,35.418z M50-50C-5.228-50-50-5.229-50,50
			c0,55.227,44.772,100,100,100c55.227,0,100-44.773,100-100C150-5.229,105.227-50,50-50z M50,133.34
			c-46.022,0-83.334-37.312-83.334-83.336S3.978-33.334,50-33.334c46.027,0,83.338,37.312,83.338,83.336
			C133.338,96.027,96.027,133.34,50,133.34z M92.711,64.588c0,0-7.291,31.248-42.711,31.248c-35.416,0-42.708-31.248-42.708-31.248
			h-17.708c0,0,10.936,47.918,60.416,47.918c48.961,0,60.418-47.918,60.418-47.918H92.711z"/>
	</g>
</g>
</svg>
