<?xml version="1.0" encoding="utf-8"?>
<!-- Generator: Adobe Illustrator 15.0.0, SVG Export Plug-In . SVG Version: 6.00 Build 0)  -->
<!DOCTYPE svg PUBLIC "-//W3C//DTD SVG 1.1//EN" "http://www.w3.org/Graphics/SVG/1.1/DTD/svg11.dtd">
<svg version="1.1" id="Layer_1" xmlns="http://www.w3.org/2000/svg" xmlns:xlink="http://www.w3.org/1999/xlink" x="0px" y="0px"
	 width="205px" height="205px" viewBox="-52.5 -52.5 205 205" enable-background="new -52.5 -52.5 205 205" xml:space="preserve">
<g>
	<g>
		<path fill="#F5F5F5" d="M50-50C-5.228-50-50-5.23-50,50S-5.228,150,50,150c55.23,0,100-44.77,100-100S105.23-50,50-50z
			 M50,133.338c-46.024,0-83.334-37.311-83.334-83.336c0-46.026,37.312-83.334,83.334-83.334c46.027,0,83.334,37.308,83.334,83.334
			C133.334,96.027,96.027,133.338,50,133.338z M19.792,35.418c7.478,0,13.542-6.062,13.542-13.542S27.27,8.332,19.792,8.332
			c-7.479,0-13.542,6.064-13.542,13.544S12.314,35.418,19.792,35.418z M80.211,8.334c-7.479,0-13.543,6.064-13.543,13.544
			c0,7.48,6.064,13.542,13.543,13.542c7.48,0,13.543-6.062,13.543-13.542C93.754,14.396,87.695,8.334,80.211,8.334z M6.25,95.316
			h87.502V78.65H6.25V95.316z"/>
	</g>
</g>
</svg>
