<?xml version="1.0" encoding="utf-8"?>
<!-- Generator: Adobe Illustrator 16.0.0, SVG Export Plug-In . SVG Version: 6.00 Build 0)  -->
<!DOCTYPE svg PUBLIC "-//W3C//DTD SVG 1.1//EN" "http://www.w3.org/Graphics/SVG/1.1/DTD/svg11.dtd">
<svg version="1.1" id="Layer_1" xmlns="http://www.w3.org/2000/svg" xmlns:xlink="http://www.w3.org/1999/xlink" x="0px" y="0px"
	 width="164px" height="47.131px" viewBox="0 0 164 47.131" enable-background="new 0 0 164 47.131" xml:space="preserve">
<g>
	<path fill="#FFFFFF" d="M62.366,32.942l-6.074-9.85h-0.329v9.85h-4.433V9.3h7.225c4.006,0,7.552,2.628,7.552,6.896
		c0,3.546-2.626,5.911-5.253,6.568l6.895,10.178H62.366z M58.097,12.913h-2.135v6.567h2.135c1.97,0,3.612-0.985,3.612-3.284
		C61.709,13.898,60.067,12.913,58.097,12.913z"/>
	<path fill="#FFFFFF" d="M73.038,27.361c0.329,1.643,1.643,2.956,3.285,2.956s2.627-0.327,3.841-1.642l3.088,1.61
		c-1.675,2.33-3.645,3.15-6.93,3.15c-4.598,0-7.553-3.119-7.553-7.389c0-4.269,2.955-7.389,7.553-7.389
		c4.302,0,7.39,3.285,7.39,7.06v1.642H73.038z M76.322,22.107c-1.971,0-2.956,1.314-3.285,2.627h6.57
		C79.279,23.421,78.293,22.107,76.322,22.107z"/>
	<path fill="#FFFFFF" d="M95.533,31.631h-0.067c-1.246,1.312-2.889,1.806-4.858,1.806c-2.955,0-5.255-1.182-5.255-4.104
		c0-3.941,2.955-4.926,7.555-4.926h2.626c0-2.299-0.657-2.627-1.969-2.627c-2.957,0-4.927,0.656-6.24,1.313l-0.986-2.956
		c2.3-0.984,4.597-1.478,7.882-1.478c2.298,0,5.254,0.494,5.254,5.09v9.193h-3.94V31.631z M92.907,27.034
		c-2.629,0-3.286,0.656-3.286,1.97c0,0.658,0.657,1.313,1.97,1.313c1.644,0,3.613-1.642,3.942-3.283H92.907z"/>
	<path fill="#FFFFFF" d="M112.773,32.942v-1.312h-0.067c-1.084,1.312-2.725,1.806-4.694,1.806c-3.286,0-6.24-2.791-6.24-7.389
		c0-4.597,2.954-7.389,6.24-7.389c1.97,0,3.61,0.494,4.694,1.806h0.067V8.972h4.104v23.971H112.773z M109.325,22.436
		c-1.643,0-3.284,1.313-3.284,3.612s1.642,3.614,3.284,3.614c1.97,0,3.448-1.315,3.448-3.614S111.295,22.436,109.325,22.436z"/>
	<path fill="#FFFFFF" d="M137.894,32.942v-7.881c0-1.64-0.656-2.625-2.299-2.625c-1.642,0-2.463,1.149-2.463,2.625v7.881h-4.105
		v-7.881c0-1.64-0.656-2.625-2.298-2.625c-1.314,0-2.463,1.313-2.463,2.625v7.881h-4.104v-13.79h4.104v1.312h0.065
		c1.083-1.312,2.595-1.806,4.368-1.806s2.955,0.821,3.611,2.134c1.643-1.641,2.955-2.134,4.927-2.134
		c2.954,0,4.761,2.134,4.761,4.762v9.521H137.894z"/>
	<path fill="#FFFFFF" d="M145.118,16.525v-4.598h4.105v4.598H145.118z M145.118,32.942v-13.79h4.105v13.79H145.118z"/>
	<path fill="#FFFFFF" d="M152.505,32.942V8.972h4.106v23.971H152.505z"/>
	<path fill="#FFFFFF" d="M159.896,32.942V8.972H164v23.971H159.896z"/>
</g>
<g>
	<polygon fill="#FFFFFF" points="23.376,14.133 23.376,17.479 33.119,14.83 33.119,11.484 	"/>
	<polygon fill="#FFFFFF" points="15.268,14.133 5.524,11.484 5.524,14.83 15.268,17.479 	"/>
	<polygon fill="#FFFFFF" points="23.376,20.927 23.376,24.272 33.119,21.624 33.119,18.279 	"/>
	<polygon fill="#FFFFFF" points="15.268,20.927 5.524,18.279 5.524,21.624 15.268,24.272 	"/>
	<polygon fill="#FFFFFF" points="23.376,27.722 23.376,31.066 33.119,28.418 33.119,25.073 	"/>
	<polygon fill="#FFFFFF" points="15.268,27.722 5.524,25.073 5.524,28.418 15.268,31.066 	"/>
	<path fill="none" d="M15.577,10.745L3.228,7.399v23.652c0.009,0.062,0.107,0.188,0.171,0.215l14.166,3.853V12.121
		C17.17,11.661,16.496,11.032,15.577,10.745z"/>
	<path fill="none" d="M21.075,35.123l14.181-3.859c0.057-0.024,0.155-0.15,0.164-0.219L35.417,7.399l-12.322,3.364
		c-1.019,0.277-1.71,1.027-2.05,1.48c0.017,0.133,0.029,0.267,0.029,0.404C21.075,13.176,21.075,29.839,21.075,35.123z"/>
	<path fill="#FFFFFF" d="M36.023,3.994c-0.254,0-0.512,0.034-0.768,0.104L22.25,7.657C20.994,8,20.032,8.665,19.341,9.322
		c0.643,0.604,1.54,1.654,1.705,2.922c0.34-0.454,1.031-1.204,2.05-1.48l12.322-3.364l0.002,23.646
		c-0.009,0.068-0.107,0.194-0.164,0.219l-14.181,3.859c0,0.998,0,1.593,0,1.593c0,0.604,0.073,1.17,0.193,1.698l14.834-4.034
		c1.45-0.394,2.544-1.823,2.544-3.328V6.689C38.646,5.154,37.519,3.994,36.023,3.994z"/>
	<path fill="#FFFFFF" d="M17.564,35.119L3.399,31.267c-0.064-0.027-0.162-0.153-0.171-0.215V7.399l12.349,3.346
		c0.919,0.287,1.593,0.916,1.988,1.376V8.089c-0.331-0.165-0.685-0.312-1.069-0.429L3.39,4.099C3.134,4.028,2.878,3.994,2.622,3.994
		C1.128,3.994,0,5.154,0,6.689v24.363c0,1.505,1.094,2.935,2.544,3.328l15.114,4.105c-0.063-0.609-0.094-1.199-0.094-1.777V35.119z"
		/>
	<path fill="#70B32D" d="M21.075,35.123c0-5.284,0-21.947,0-22.475c0-0.137-0.012-0.271-0.029-0.404
		c-0.165-1.268-1.062-2.318-1.705-2.922c-0.944-0.885-1.776-1.236-1.776-1.236v0.003v4.032v22.998v1.589
		c0,0.578,0.031,1.168,0.094,1.777c0.135,1.303,0.429,2.698,0.977,4.292c0.527,1.533,1.437,3.068,2.68,4.278
		c0.138,0.135,0.271,0.083,0.291-0.108l0.341-3.311l2.383-0.462c0.189-0.035,0.201-0.128,0.03-0.218
		c-0.797-0.425-1.3-0.942-1.655-1.421c-0.556-0.766-1.144-1.825-1.438-3.122c-0.121-0.528-0.193-1.095-0.193-1.698
		C21.075,36.716,21.075,36.121,21.075,35.123z"/>
</g>
</svg>
