<?xml version="1.0" encoding="utf-8"?>
<!-- Generator: Adobe Illustrator 15.0.0, SVG Export Plug-In . SVG Version: 6.00 Build 0)  -->
<!DOCTYPE svg PUBLIC "-//W3C//DTD SVG 1.1//EN" "http://www.w3.org/Graphics/SVG/1.1/DTD/svg11.dtd">
<svg version="1.1" id="Layer_1" xmlns="http://www.w3.org/2000/svg" xmlns:xlink="http://www.w3.org/1999/xlink" x="0px" y="0px"
	 width="205px" height="205px" viewBox="-52.5 -52.5 205 205" enable-background="new -52.5 -52.5 205 205" xml:space="preserve">
<g>
	<g>
		<path fill="#F5F5F5" d="M80.211,35.418c7.48,0,13.541-6.062,13.541-13.542c0-7.478-6.061-13.542-13.541-13.542
			c-7.479,0-13.541,6.062-13.541,13.542S72.732,35.418,80.211,35.418z M19.794,35.418c7.479,0,13.542-6.062,13.542-13.542
			c0-7.478-6.062-13.542-13.542-13.542c-7.479,0-13.542,6.062-13.542,13.542C6.25,29.355,12.314,35.418,19.794,35.418z M50-50
			C-5.228-50-50-5.229-50,50c0,55.227,44.772,100,100,100c55.229,0,100-44.773,100-100C150-5.229,105.227-50,50-50z M50,133.34
			c-46.022,0-83.334-37.312-83.334-83.336S3.978-33.334,50-33.334c46.027,0,83.338,37.312,83.338,83.336
			C133.338,96.027,96.027,133.34,50,133.34z M50,62.502c-40.608,0-46.874,39.586-46.874,39.586h17.708
			c0,0,4.168-22.918,29.166-22.918c25.002,0,29.168,22.918,29.168,22.918h17.707C96.879,102.088,90.613,62.502,50,62.502z"/>
	</g>
</g>
</svg>
